<svg xmlns="http://www.w3.org/2000/svg" width="147.55193" height="98.704102">
  <defs>
    <radialGradient id="grad1" cx="50%" cy="50%" r="50%" fx="50%" fy="50%">
      <stop offset="0%" style="stop-color:rgba(255,255,255,.1);" />
      <stop offset="100%" style="stop-color:rgba(255,255,255,.2);" />
    </radialGradient>
  </defs>
  <g transform="translate(-167.05466,-379.59924)">
    <path
       style="
          stroke:0;
          fill: url(#grad1);
       "
       d="m 259.89881,380.59924 c -13.13226,0 -24.36476,8.75504 -28.93874,21.15325 -3.28364,-1.44879 -6.92847,-2.22341 -10.75425,-2.22341 -12.89656,0 -23.63069,9.13525 -25.97782,21.24589 -1.65257,-0.41046 -3.38524,-0.61761 -5.16763,-0.61761 -11.60557,0 -21.00571,9.25452 -21.00571,20.65917 0,11.40463 9.40014,20.65915 21.00571,20.65915 3.64942,0 7.09323,-0.92418 10.08387,-2.53221 5.16209,5.17569 13.54997,8.55395 23.01689,8.55395 7.62527,0 14.53429,-2.1895 19.637,-5.74381 4.38513,4.59567 10.52222,7.44224 17.31853,7.44224 8.83023,0 16.54937,-4.81872 20.75434,-12.01257 2.8951,1.62824 6.16573,2.56308 9.60899,2.56308 12.03541,0 21.78784,-11.17098 21.78784,-24.95156 0,-13.27227 -9.05524,-24.10728 -20.475,-24.88982 -1.93417,-16.53022 -15.03339,-29.30574 -30.89402,-29.30574 z"
    />
  </g>
</svg>
